<?xml version="1.0" encoding="UTF-8"?><svg id="Ebene_3" xmlns="http://www.w3.org/2000/svg" viewBox="0 0 48.79 47.29"><defs><style>.cls-1{fill:#086c87;}</style></defs><g id="Ebene_1"><path class="cls-1" d="M48.79,9.87c-.04-.4-.27-.75-.62-.95s-.77-.22-1.14-.05c-.06.03-.12.06-.19.09-.54.26-2.66,1.24-4.84,1.72-1.61.35-2.52.33-3.26.35-.82.01-1.6,0-2.72.46-1.06.44-2.1,1.65-3.12,3.21-.88-1.32-2.47-2.9-5.3-3.77-3.74-1.16-15.11-4.67-17.74-10.21-.3-.62-1.04-.89-1.67-.59-.62.3-.89,1.04-.59,1.67,2.79,5.85,12.33,9.38,19.26,11.52,3.28,1.01,4.29,3.16,4.55,3.91-.25.47-.5.94-.75,1.42l-.22.42c-.33-.53-.69-.97-1.04-1.34-2.21-2.36-4.88-2.69-8.58-3.16-1.93-.24-4.12-.52-6.78-1.13-4.25-.97-8.24-2.45-12.21-4.52-.56-.29-1.25-.12-1.6.4-.36.52-.28,1.22.19,1.64l.25.22c1.07.96,2.53,2.26,3.98,4.18,1.7,2.24,2.74,4.07,3.58,5.54,1.44,2.51,2.48,4.32,5.26,5.86,3.63,2.02,7.99,2.45,11.37,1.12,1.94-.76,3.54-2.06,4.79-3.39.14,1.41.09,3.13-.28,5.2-.15.82-.35,1.59-.61,2.33-2.16-.2-4.59-.38-7.42.81-6.17,2.61-8.38,7.99-9.73,12.9-.12.44,0,.92.34,1.24.24.23.55.35.86.35.13,0,.26-.02.39-.06l.24-.07c8.21-2.4,14.13-6.85,16.91-12.53,1.88.09,3.8-.1,5.68-1.58,2.37-1.86,2.88-4.38,3.42-7.04.47-2.34,1.01-5,2.84-8.03,2.42-3.99,4.84-6.4,5.8-6.83l-.03-.06c.5-.37.8-.77.75-1.21ZM23.93,25.53c-2.66,1.04-6.28.66-9.24-.98-2.17-1.2-2.97-2.6-4.3-4.92-.88-1.53-1.97-3.43-3.76-5.8-.01-.02-.03-.04-.04-.06,2.25.85,4.53,1.54,6.89,2.08,2.79.64,5.14.94,7.03,1.17,3.42.43,5.48.69,7.07,2.39.46.5.93,1.16,1.31,2.05-1.13,1.49-2.81,3.21-4.97,4.06ZM14.69,44.11c1.66-4.79,3.96-7.46,7.6-9.01,1.4-.59,2.7-.76,3.95-.76.47,0,.93.02,1.39.06-3.05,5.37-8.99,8.29-12.95,9.71ZM40.12,16.68c-2.06,3.4-2.67,6.41-3.15,8.83-.5,2.48-.86,4.28-2.51,5.57-.99.78-2.02,1.03-3.15,1.06.21-.67.38-1.36.5-2.07.63-3.51.44-6.19-.14-8.21.45-.68.77-1.25.96-1.61l.24-.47c2.34-4.51,3.52-5.75,4.1-5.99.66-.27,1.03-.28,1.76-.27.82,0,1.91,0,3.79-.4.01,0,.02,0,.04,0-.83,1.07-1.66,2.28-2.44,3.57Z"/></g></svg>