<?xml version="1.0" encoding="UTF-8"?><svg id="Ebene_2" xmlns="http://www.w3.org/2000/svg" viewBox="0 0 56.8 56.8"><defs><style>.cls-1{fill:#086c87;}</style></defs><g id="Ebene_1"><path class="cls-1" d="M28.4,0C12.74,0,0,12.74,0,28.4s12.74,28.4,28.4,28.4,28.4-12.74,28.4-28.4S44.06,0,28.4,0ZM50.06,14.23c-.95.4-2.38.95-3.85,1.27-1.61.35-2.52.34-3.26.35-.83,0-1.6,0-2.72.46-1.06.44-2.1,1.65-3.12,3.21-.88-1.32-2.47-2.9-5.3-3.77-3.52-1.09-13.8-4.27-17.19-9.27,3.99-2.52,8.71-3.98,13.77-3.98,9.05,0,17.03,4.67,21.66,11.73ZM35.89,26.68c.45-.68.77-1.25.96-1.61l.24-.47c2.34-4.51,3.52-5.75,4.1-5.99.66-.27,1.02-.28,1.76-.27.83,0,1.91,0,3.79-.4.01,0,.02,0,.04,0-.83,1.07-1.66,2.28-2.44,3.57-2.06,3.4-2.67,6.41-3.15,8.83-.5,2.49-.86,4.28-2.51,5.57-.99.78-2.02,1.03-3.15,1.06.21-.67.38-1.36.5-2.06.63-3.51.44-6.19-.13-8.22ZM12.58,7.91c3.48,5.08,12.09,8.25,18.5,10.23,3.28,1.01,4.29,3.16,4.55,3.91-.25.47-.51.94-.75,1.42l-.22.42c-.33-.53-.69-.97-1.04-1.34-2.21-2.36-4.88-2.69-8.58-3.16-1.93-.24-4.12-.52-6.78-1.13-3.96-.91-7.71-2.28-11.43-4.14,1.57-2.36,3.52-4.45,5.76-6.19ZM33.11,26.29c-1.13,1.49-2.81,3.21-4.97,4.06-2.66,1.04-6.28.66-9.24-.98-2.17-1.2-2.97-2.6-4.3-4.92-.88-1.53-1.97-3.43-3.76-5.8-.01-.02-.03-.04-.04-.06,2.25.85,4.53,1.54,6.89,2.08,2.79.64,5.14.94,7.03,1.18,3.41.43,5.47.69,7.07,2.39.46.5.93,1.16,1.31,2.05ZM2.5,28.4c0-4.3,1.06-8.35,2.92-11.92,1,.9,2.21,2.07,3.43,3.69,1.7,2.24,2.74,4.07,3.58,5.53,1.44,2.51,2.48,4.32,5.26,5.87,3.64,2.02,7.99,2.44,11.36,1.12,1.94-.76,3.54-2.06,4.79-3.39.14,1.41.09,3.13-.29,5.2-.15.82-.35,1.59-.61,2.33-2.16-.2-4.6-.38-7.42.81-6.17,2.61-8.38,7.99-9.73,12.9-.04.15-.04.31-.03.46-7.91-4.44-13.27-12.9-13.27-22.6ZM31.85,39.23c-3.05,5.37-8.99,8.29-12.95,9.71,1.66-4.79,3.96-7.46,7.6-9.01,1.4-.59,2.7-.76,3.95-.76.47,0,.93.02,1.39.06ZM28.4,54.3c-3.82,0-7.45-.84-10.72-2.33,8.18-2.41,14.09-6.84,16.86-12.52,1.89.09,3.8-.1,5.68-1.58,2.37-1.86,2.88-4.38,3.42-7.04.47-2.34,1.01-5,2.84-8.03,1.88-3.1,3.75-5.23,4.95-6.23,1.83,3.55,2.87,7.57,2.87,11.83,0,14.28-11.62,25.9-25.9,25.9Z"/></g></svg>